<svg version="1.2" xmlns="http://www.w3.org/2000/svg" viewBox="0 0 769 138" width="167" height="30">
	<title>logo</title>
	<style>
		.s0 { fill: #253547 } 
		.s1 { fill: #00a5bb } 
	</style>
	<path class="s0" d="m657 137.3v-134.1h-32.8v48.9h-46.8v-48.9h-31.7v134.1h31.7v-52.4h46.8v52.4z"/>
	<path class="s0" d="m542.5 137.4v-134.1h-32.8v67.2l-67.4-67.2h-12.3v134.1h32.8v-67.3l67.1 67.3z"/>
	<path class="s0" d="m168.3 119.5l8.5 17.9h32.4l-63-134h-14.3l-62.6 134h32.5l8.2-17.9zm-29-62.9l16.5 35.8h-33.2z"/>
	<path class="s1" d="m84.7 97c-5 2.6-10.5 4-16.1 3.9-18.7 0-32.3-13.6-32.3-32.2 0-18.7 13.6-32.3 32.2-32.3 3.8 0 7.6 0.6 11.2 1.8l15.3-32.9c-9.2-3.9-19.2-5.7-29.3-5.2-10 0.4-19.8 3-28.7 7.6-8.9 4.7-16.7 11.2-22.8 19.2-6.1 7.9-10.4 17.1-12.6 26.9-2.1 9.8-2.1 20 0 29.8 2.2 9.8 6.5 19 12.6 27 6.2 7.9 14 14.4 22.9 19.1 8.9 4.6 18.7 7.2 28.7 7.6z"/>
	<path class="s0" d="m266.5 137.4h37.8l-28.4-48.5 1-0.9c7.2-6.6 12.2-15.3 14.4-24.9 2.2-9.5 1.5-19.5-2.1-28.7-3.5-9.1-9.8-17-17.9-22.5-8.1-5.6-17.7-8.5-27.5-8.5h-56.2v80.3l25.2 53.7h7.6v-36.3h24.9zm-46.1-64.4v-42.6h24c5.7 0 11.1 2.3 15.2 6.3 4 4 6.2 9.4 6.2 15.1 0.1 5.6-2.1 11-6 15-4 3.9-9.3 6.2-14.9 6.2z"/>
	<path class="s0" d="m361.4 137.4h37.8l-28.3-48.5 0.9-0.9c7.3-6.6 12.3-15.3 14.5-24.9 2.2-9.6 1.5-19.6-2.1-28.7-3.6-9.2-9.9-17-18-22.6-8.1-5.5-17.7-8.4-27.5-8.4h-76.7c8.2 3 15.6 8.1 21.4 14.8 5.7 6.6 9.7 14.6 11.5 23.2 1.8 8.7 1.4 17.6-1.2 26-2.5 8.4-7.2 16.1-13.6 22.2l28 47.9h7.1v-36.5h24.9zm-46.2-64.3v-42.7h24c5.7 0 11.1 2.3 15.1 6.3 4.1 4 6.3 9.5 6.3 15.1 0 2.8-0.5 5.6-1.5 8.1-1.1 2.6-2.6 4.9-4.6 6.9-1.9 2-4.2 3.5-6.8 4.6-2.5 1.1-5.3 1.7-8.1 1.7z"/>
	<path class="s0" d="m393.8 5.9v115.7l9.2 15.8h23.6v-98.7z"/>
	<path class="s0" d="m746.8 20.6c-12.3-11.2-28.3-17.3-44.9-17.3-16.6 0-32.6 6.3-44.8 17.4v99.5c13.2 11.9 30.6 18 48.3 17.1 17.8-0.9 34.5-8.8 46.4-22.1 11.9-13.2 18-30.6 17.1-48.3-0.9-17.8-8.8-34.4-22.1-46.3zm-7.7 51.4c0 9.7-3.9 19-10.7 25.8-6.8 6.8-16.1 10.7-25.8 10.7-9.6 0-18.9-3.9-25.7-10.7-6.8-6.8-10.7-16.1-10.7-25.8 0-9.6 3.9-18.9 10.7-25.7 6.8-6.9 16.1-10.7 25.7-10.7 9.7 0 19 3.8 25.8 10.7 6.8 6.8 10.7 16.1 10.7 25.7z"/>
	<path class="s1" d="m426.7 4.7h-28.1l28.1 28.1z"/>
</svg>