<svg width="207" height="37" viewBox="0 0 207 37" fill="none" xmlns="http://www.w3.org/2000/svg">
<path d="M176.852 36.9579V0.864746H168.018V14.0238H155.409V0.864746H146.897V36.9579H155.409V22.8572H168.018V36.9579H176.852Z" fill="white"/>
<path d="M146.022 36.9859V0.897461H137.188V18.965L119.065 0.897461H115.746V36.9859H124.575V18.8671L142.647 36.9906L146.022 36.9859Z" fill="white"/>
<path d="M45.3112 32.1569L47.5813 36.9861H56.3168L39.3447 0.911621H35.5037L18.6621 36.9907H27.4022L29.621 32.1569H45.3112ZM37.4941 15.2407L41.9271 24.8618H33.0052L37.4941 15.2407Z" fill="white"/>
<path d="M22.7882 26.111C21.4534 26.8176 19.9633 27.1797 18.4532 27.1645C13.4282 27.1645 9.77831 23.51 9.77831 18.485C9.77831 13.46 13.4282 9.80548 18.4485 9.80548C19.4659 9.80163 20.4775 9.95896 21.4458 10.2716L25.5804 1.41499C23.0853 0.37828 20.3933 -0.0989052 17.6938 0.0170267C14.9944 0.132959 12.3532 0.839189 9.95614 2.086C7.55909 3.33281 5.46448 5.08989 3.81975 7.23355C2.17503 9.3772 1.02018 11.8553 0.436507 14.4934C-0.147167 17.1316 -0.145478 19.8656 0.441456 22.503C1.02839 25.1404 2.1863 27.6171 3.83367 29.7587C5.48104 31.9003 7.57783 33.6548 9.97641 34.8986C12.375 36.1425 15.0171 36.8455 17.7167 36.958L22.7882 26.111Z" fill="#00A5BB"/>
<path d="M71.7324 36.9907H81.9082L74.2635 23.9389L74.5246 23.6965C76.4676 21.9049 77.8248 19.5686 78.4187 16.9931C79.0125 14.4177 78.8154 11.723 77.853 9.26145C76.8907 6.79988 75.2079 4.68601 73.0247 3.19627C70.8416 1.70654 68.2597 0.910278 65.6167 0.911623H50.4951V22.5405L57.2914 36.9907H59.3284V27.2018H66.0362L71.7324 36.9907ZM59.3284 19.6784V8.20203H65.7845C67.3121 8.20326 68.7769 8.81067 69.8571 9.89089C70.9373 10.9711 71.5447 12.4358 71.5459 13.9635C71.5546 15.4689 70.9655 16.9163 69.908 17.9878C68.8505 19.0592 67.4111 19.6673 65.9057 19.6784H59.3284Z" fill="white"/>
<path d="M97.2813 36.9908H107.457L99.8264 23.9389L100.087 23.6965C102.032 21.9038 103.389 19.5658 103.983 16.9886C104.576 14.4114 104.377 11.7151 103.413 9.25277C102.448 6.7904 100.762 4.6767 98.5761 3.18839C96.39 1.70009 93.8055 0.90654 91.1609 0.911646H70.5156C72.7413 1.72759 74.7231 3.09596 76.2747 4.88818C77.8264 6.6804 78.8969 8.83765 79.3858 11.1572C79.8747 13.4769 79.7659 15.8827 79.0696 18.1487C78.3734 20.4147 77.1125 22.4665 75.4054 24.1114L82.9196 37.0001H84.8401V27.1832H91.5431L97.2813 36.9908ZM84.8587 19.6784V8.20205H91.3101C92.8385 8.20205 94.3045 8.80891 95.3857 9.88927C96.4669 10.9696 97.075 12.4351 97.0762 13.9635C97.0805 14.7097 96.9378 15.4495 96.6562 16.1405C96.3746 16.8316 95.9596 17.4604 95.435 17.9911C94.9104 18.5217 94.2864 18.9439 93.5986 19.2334C92.9109 19.5229 92.1728 19.6741 91.4266 19.6784H84.8587Z" fill="white"/>
<path d="M105.989 1.5874V32.7394L108.474 36.986H114.827V10.4161L105.989 1.5874Z" fill="white"/>
<path d="M201.032 5.53549C197.718 2.53886 193.408 0.883506 188.94 0.892123C184.473 0.900741 180.169 2.57271 176.867 5.5821V32.3431C180.422 35.5475 185.104 37.2085 189.884 36.9607C194.664 36.7129 199.149 34.5765 202.353 31.0216C205.558 27.4667 207.219 22.7844 206.971 18.0049C206.723 13.2253 204.587 8.73992 201.032 5.53549ZM198.939 19.3891C198.939 21.9896 197.906 24.4836 196.067 26.3225C194.228 28.1613 191.734 29.1944 189.134 29.1944C186.533 29.1944 184.039 28.1613 182.2 26.3225C180.361 24.4836 179.328 21.9896 179.328 19.3891C179.328 16.7886 180.361 14.2946 182.2 12.4558C184.039 10.617 186.533 9.5839 189.134 9.5839C191.734 9.5839 194.228 10.617 196.067 12.4558C197.906 14.2946 198.939 16.7886 198.939 19.3891Z" fill="white"/>
<path d="M114.855 1.26221H107.282L114.855 8.83514V1.26221Z" fill="#00A5BB"/>
</svg>
